<?xml version="1.0" encoding="UTF-8"?>
<svg xmlns="http://www.w3.org/2000/svg" xmlns:xlink="http://www.w3.org/1999/xlink" width="115.814" height="115.814" viewBox="0 0 115.814 115.814">
<defs>
<clipPath id="clip-0">
<path clip-rule="nonzero" d="M 0 0 L 115.722656 0 L 115.722656 115.722656 L 0 115.722656 Z M 0 0 "/>
</clipPath>
</defs>
<path fill-rule="nonzero" fill="rgb(100%, 50%, 0%)" fill-opacity="1" d="M 114.511719 57.816406 C 114.511719 26.503906 89.128906 1.125 57.816406 1.125 C 26.503906 1.125 1.125 26.503906 1.125 57.816406 C 1.125 89.128906 26.503906 114.511719 57.816406 114.511719 C 89.128906 114.511719 114.511719 89.128906 114.511719 57.816406 Z M 114.511719 57.816406 "/>
<g clip-path="url(#clip-0)">
<path fill="none" stroke-width="0.3985" stroke-linecap="butt" stroke-linejoin="miter" stroke="rgb(0%, 0%, 0%)" stroke-opacity="1" stroke-miterlimit="10" d="M 56.694719 0.00059375 C 56.694719 31.313094 31.311906 56.692 -0.00059375 56.692 C -31.313094 56.692 -56.692 31.313094 -56.692 0.00059375 C -56.692 -31.311906 -31.313094 -56.694719 -0.00059375 -56.694719 C 31.311906 -56.694719 56.694719 -31.311906 56.694719 0.00059375 Z M 56.694719 0.00059375 " transform="matrix(1, 0, 0, -1, 57.817, 57.817)"/>
</g>
</svg>
